<svg width="1728" height="1117" viewBox="0 0 1728 1117" fill="none" xmlns="http://www.w3.org/2000/svg">
<g clip-path="url(#clip0_10_2)">
<rect width="1728" height="1117" fill="white"/>
<g clip-path="url(#clip1_10_2)">
<path d="M1332.94 812.618C1340.28 884.664 1251.44 937.722 1157.25 935.488C1063.06 932.695 963.532 874.611 868.676 867.351C774.488 860.09 684.976 903.653 602.144 900.861C519.312 898.068 443.16 847.803 407.088 783.017C371.016 718.231 375.024 638.366 375.024 558.5C375.024 478.635 371.684 398.769 404.416 329.515C437.816 260.82 507.956 202.177 590.12 165.875C672.952 129.014 768.476 114.493 861.996 117.844C954.848 121.195 1046.36 141.859 1094.46 194.917C1142.56 247.974 1147.9 333.425 1145.23 399.328C1141.89 465.231 1131.2 512.145 1176.62 580.84C1222.72 649.536 1326.26 740.571 1332.94 812.618Z" fill="#FF0066"/>
</g>
<path d="M103.786 644.324C130.717 647.189 146.188 683.288 156.789 716.809C167.389 750.043 173.406 781.271 167.103 808.775C160.8 836.28 142.177 860.345 122.409 877.822C102.64 895.585 81.7255 907.045 61.0975 928.532C40.4695 949.733 19.8415 980.962 -13.106 1002.74C-46.34 1024.8 -91.8935 1037.69 -110.802 1015.06C-129.425 992.708 -120.83 934.835 -140.312 895.298C-159.794 855.475 -207.066 833.987 -209.931 811.067C-212.51 787.861 -170.394 763.222 -147.188 730.274C-123.981 697.327 -119.111 656.071 -97.91 650.054C-76.4225 643.751 -38.6045 672.688 -0.213465 672.115C38.1775 671.542 76.855 641.459 103.786 644.324Z" fill="#FF0066"/>
<path d="M1632.51 290.913C1649.46 307.296 1657.46 332.252 1659.75 354.35C1662.04 376.638 1658.23 396.069 1655.56 413.976C1652.7 431.883 1650.99 448.076 1645.65 465.03C1640.51 481.985 1631.75 499.511 1617.65 511.322C1603.55 522.942 1584.12 528.657 1559.36 537.42C1534.78 546.183 1505.25 557.994 1484.49 549.993C1463.92 541.992 1452.49 514.37 1449.25 488.843C1446.2 463.125 1451.53 439.313 1458.77 419.691C1466.01 400.07 1475.35 384.83 1479.54 360.827C1483.54 336.824 1482.59 304.439 1495.92 285.77C1509.26 267.291 1536.88 262.719 1563.55 264.624C1590.03 266.339 1615.74 274.34 1632.51 290.913Z" fill="#FF0066"/>
</g>
<defs>
<clipPath id="clip0_10_2">
<rect width="1728" height="1117" fill="white"/>
</clipPath>
<clipPath id="clip1_10_2">
<rect width="1117" height="1336" fill="white" transform="translate(1532 6.10352e-05) rotate(90)"/>
</clipPath>
</defs>
</svg>
