<svg width="1728" height="1117" viewBox="0 0 1728 1117" fill="none" xmlns="http://www.w3.org/2000/svg">
<g clip-path="url(#clip0_10_2)">
<rect width="1728" height="1117" fill="white"/>
<g clip-path="url(#clip1_10_2)">
<path d="M1441.86 812.618C1449.92 884.664 1352.56 937.722 1249.35 935.488C1146.14 932.695 1037.07 874.611 933.124 867.351C829.912 860.09 731.824 903.653 641.056 900.861C550.288 898.068 466.84 847.803 427.312 783.017C387.784 718.231 392.176 638.366 392.176 558.5C392.176 478.634 388.516 398.769 424.384 329.515C460.984 260.819 537.844 202.177 627.88 165.874C718.648 129.013 823.324 114.492 925.804 117.843C1027.55 121.194 1127.84 141.859 1180.54 194.917C1233.24 247.974 1239.1 333.425 1236.17 399.328C1232.51 465.231 1220.8 512.145 1270.58 580.84C1321.08 649.536 1434.54 740.571 1441.86 812.618Z" fill="#FF0066"/>
</g>
<path d="M103.786 644.324C130.717 647.189 146.188 683.288 156.789 716.809C167.389 750.043 173.406 781.271 167.103 808.775C160.8 836.28 142.177 860.345 122.409 877.822C102.64 895.585 81.7255 907.045 61.0975 928.532C40.4695 949.733 19.8415 980.962 -13.106 1002.74C-46.34 1024.8 -91.8935 1037.69 -110.802 1015.06C-129.425 992.708 -120.83 934.835 -140.312 895.298C-159.794 855.475 -207.066 833.987 -209.931 811.067C-212.51 787.861 -170.394 763.222 -147.188 730.274C-123.981 697.327 -119.111 656.071 -97.91 650.054C-76.4225 643.751 -38.6045 672.688 -0.213465 672.115C38.1775 671.542 76.855 641.459 103.786 644.324Z" fill="#FF0066"/>
<path d="M1610.95 297.52C1622.03 307.84 1627.26 323.56 1628.75 337.48C1630.24 351.52 1627.75 363.76 1626.01 375.04C1624.14 386.32 1623.02 396.52 1619.54 407.2C1616.18 417.88 1610.45 428.92 1601.24 436.36C1592.02 443.68 1579.32 447.28 1563.14 452.8C1547.08 458.32 1527.78 465.76 1514.21 460.72C1500.76 455.68 1493.29 438.28 1491.18 422.2C1489.19 406 1492.67 391 1497.4 378.64C1502.13 366.28 1508.23 356.68 1510.97 341.56C1513.59 326.44 1512.97 306.04 1521.68 294.28C1530.4 282.64 1548.45 279.76 1565.88 280.96C1583.18 282.04 1599.99 287.08 1610.95 297.52Z" fill="#FF0066"/>
</g>
<defs>
<clipPath id="clip0_10_2">
<rect width="1728" height="1117" fill="white"/>
</clipPath>
<clipPath id="clip1_10_2">
<rect width="1117" height="1464" fill="white" transform="translate(1660) rotate(90)"/>
</clipPath>
</defs>
</svg>
