<svg width="1728" height="1117" viewBox="0 0 1728 1117" fill="none" xmlns="http://www.w3.org/2000/svg">
<g clip-path="url(#clip0_10_2)">
<rect width="1728" height="1117" fill="white"/>
<g clip-path="url(#clip1_10_2)">
<path d="M1441.86 897.618C1449.92 969.664 1352.56 1022.72 1249.35 1020.49C1146.14 1017.7 1037.07 959.611 933.124 952.351C829.912 945.09 731.824 988.653 641.056 985.861C550.288 983.068 466.84 932.803 427.312 868.017C387.784 803.231 392.176 723.366 392.176 643.5C392.176 563.635 388.516 483.769 424.384 414.515C460.984 345.82 537.844 287.177 627.88 250.875C718.648 214.014 823.324 199.493 925.804 202.844C1027.55 206.195 1127.84 226.859 1180.54 279.917C1233.24 332.974 1239.1 418.425 1236.17 484.328C1232.51 550.231 1220.8 597.145 1270.58 665.84C1321.08 734.536 1434.54 825.571 1441.86 897.618Z" fill="#FF0066"/>
</g>
<path d="M103.786 644.324C130.717 647.189 146.188 683.288 156.789 716.809C167.389 750.043 173.406 781.271 167.103 808.775C160.8 836.28 142.177 860.345 122.409 877.822C102.64 895.585 81.7255 907.045 61.0975 928.532C40.4695 949.733 19.8415 980.962 -13.106 1002.74C-46.34 1024.8 -91.8935 1037.69 -110.802 1015.06C-129.425 992.708 -120.83 934.835 -140.312 895.298C-159.794 855.475 -207.066 833.987 -209.931 811.067C-212.51 787.861 -170.394 763.222 -147.188 730.274C-123.981 697.327 -119.111 656.071 -97.91 650.054C-76.4225 643.751 -38.6045 672.688 -0.213465 672.115C38.1775 671.542 76.855 641.459 103.786 644.324Z" fill="#FF0066"/>
<path d="M417.77 -28.6697C444.793 -4.08039 432.848 47.5385 417.659 92.4683C402.698 137.086 384.348 175.867 355.56 200.773C326.773 225.678 287.32 237.02 251.873 240.278C216.198 243.847 184.302 239.644 144.722 246.581C105.371 253.206 58.025 270.744 4.8104 268.171C-48.9444 265.681 -108.796 243.392 -111.328 203.686C-113.777 164.52 -58.283 108.393 -47.962 49.8348C-37.4126 -9.03507 -71.7246 -70.1079 -56.5688 -97.3344C-40.8727 -124.644 24.603 -117.88 76.1254 -135.232C127.648 -152.585 165.841 -193.598 193.709 -183.242C222.118 -172.97 240.202 -111.328 282.438 -81.3437C324.673 -51.3589 390.747 -53.259 417.77 -28.6697Z" fill="#FF0066"/>
<path d="M1610.95 567.52C1622.03 577.84 1627.26 593.56 1628.75 607.48C1630.24 621.52 1627.75 633.76 1626.01 645.04C1624.14 656.32 1623.02 666.52 1619.54 677.2C1616.18 687.88 1610.45 698.92 1601.24 706.36C1592.02 713.68 1579.32 717.28 1563.14 722.8C1547.08 728.32 1527.78 735.76 1514.21 730.72C1500.76 725.68 1493.29 708.28 1491.18 692.2C1489.19 676 1492.67 661 1497.4 648.64C1502.13 636.28 1508.23 626.68 1510.97 611.56C1513.59 596.44 1512.97 576.04 1521.68 564.28C1530.4 552.64 1548.45 549.76 1565.88 550.96C1583.18 552.04 1599.99 557.08 1610.95 567.52Z" fill="#FF0066"/>
<path d="M1938.77 -28.6697C1965.79 -4.08039 1953.85 47.5385 1938.66 92.4683C1923.7 137.086 1905.35 175.867 1876.56 200.773C1847.77 225.678 1808.32 237.02 1772.87 240.278C1737.2 243.847 1705.3 239.644 1665.72 246.581C1626.37 253.206 1579.02 270.744 1525.81 268.171C1472.06 265.681 1412.2 243.392 1409.67 203.686C1407.22 164.52 1462.72 108.393 1473.04 49.8348C1483.59 -9.03507 1449.28 -70.1079 1464.43 -97.3344C1480.13 -124.644 1545.6 -117.88 1597.13 -135.232C1648.65 -152.585 1686.84 -193.598 1714.71 -183.242C1743.12 -172.97 1761.2 -111.328 1803.44 -81.3437C1845.67 -51.3589 1911.75 -53.259 1938.77 -28.6697Z" fill="#FF0066"/>
</g>
<defs>
<clipPath id="clip0_10_2">
<rect width="1728" height="1117" fill="white"/>
</clipPath>
<clipPath id="clip1_10_2">
<rect width="1117" height="1464" fill="white" transform="translate(1660 85.0001) rotate(90)"/>
</clipPath>
</defs>
</svg>
